# xmcd
#
# Track frame offsets:
#	150
#	20209
#	52281
#	107514
#	140533
#	165548
#	205828
#	260618
#	277664
#	301674
#	326190
#
# Disc length: 4732 seconds
#
# Revision: 1
# Processed by: cddbd v1.5.2PL0 Copyright (c) Steve Scherf et al.
# Submitted via: CDmax 2.0
#
DISCID=9d127a0b
DTITLE=Eric Clapton - Little Wing At The Hall (disc2)
DYEAR=2006
DGENRE=Blues
TTITLE0=Wonderful Tonight
TTITLE1=Layla
TTITLE2=Cocaine
TTITLE3=Crossroads
TTITLE4=Five Long Years
TTITLE5=Got to Get Better in a Little While
TTITLE6=Old Love
TTITLE7=Key to the Highway
TTITLE8=After Midnight
TTITLE9=Little Queen of Spades
TTITLE10=Anyday
EXTD=Eric Clapton\tguitar, vocals\nDoyle Bramhall II\tguitar\nDerek Trucks\tg
EXTD=uitar\nChris Stainton\tkeyboards\nTim Carmon\tkeyboards\nWillie Weeks\tb
EXTD=ass\nSteve Jordan\tdrums\nMichelle John\tbacking vocals\nSharon White\tb
EXTD=acking vocals\n\nRecorded live at Budokan, Tokyo, Japan on December 8th
EXTD=, 2006 except for indicated
EXTT0=
EXTT1=
EXTT2=
EXTT3=
EXTT4=Recorded live at Budokan, Tokyo, Japan on November 23rd, 2006
EXTT5=Same as track #5
EXTT6=Same as track #5
EXTT7=Same as track #5\n\nacoustic
EXTT8=Same as track #5
EXTT9=Same as track #5\n\nfade out
EXTT10=Same as track #5
PLAYORDER=
